<svg xmlns="http://www.w3.org/2000/svg" width="186" height="199" fill="none"><path fill="#4493D6" fill-rule="evenodd" d="M130.333 190.469c.031-.011.068-.021.099-.047.083-.031.151-.068.224-.099-.104.057-.224.099-.323.146Zm-13.844 4.87c.058-.016.115-.026.172-.047.011 0 .021 0 .021-.016a1.447 1.447 0 0 1-.193.063Zm66.24-68.198a88.256 88.256 0 0 1-1.208 4.656c-.12.37-.224.74-.339 1.12-.021.067-.031.14-.057.208a68.78 68.78 0 0 0-.333 1.063c-.105.312-.209.635-.313.947-.135.428-.286.855-.437 1.282a20.19 20.19 0 0 1-.303.859c-.104.287-.203.578-.307.854-.104.287-.219.568-.323.854-.12.313-.234.625-.359.938-.104.255-.198.505-.302.76a80.49 80.49 0 0 1-.703 1.688c-.115.276-.23.542-.355.823 0 0 0 .01-.015.021-.104.265-.229.52-.344.786-.125.287-.255.578-.391.865a75.304 75.304 0 0 1-1.223 2.547c-.115.239-.245.484-.37.723a.397.397 0 0 1-.047.105c-.172.349-.36.708-.542 1.052l-.76 1.411c-.115.198-.235.406-.334.599l-.52.917c-.115.208-.23.416-.36.609-.182.323-.37.636-.552.959-.14.208-.255.406-.38.614-.172.292-.359.578-.531.854-.115.188-.219.36-.334.521-.234.38-.484.766-.729 1.146a100.974 100.974 0 0 1-2.828 4.057c-.307.427-.63.854-.953 1.271-.026.047-.063.078-.094.115-.323.427-.646.843-.979 1.27-.016.011-.026.037-.036.047-.334.417-.683.834-1.016 1.235a48.97 48.97 0 0 1-1.063 1.271c-.369.427-.724.843-1.093 1.26-.37.406-.729.812-1.11 1.224-.416.453-.828.906-1.255 1.344-.312.312-.614.635-.922.948-.083.078-.177.171-.265.255-.266.276-.532.531-.797.797-.104.114-.209.208-.313.312-.359.344-.713.682-1.073 1.016-.406.38-.797.75-1.198 1.109-.406.37-.823.74-1.224 1.099-.291.255-.588.495-.88.75-.286.245-.588.495-.875.74-.312.255-.609.495-.911.75-.313.245-.62.5-.948.75a24.42 24.42 0 0 1-.677.531c-.188.151-.38.292-.568.443l-.828.625c-.276.208-.568.416-.844.609-.286.219-.588.427-.875.635-.291.209-.578.407-.88.615a87.682 87.682 0 0 1-10.115 6.099 89.028 89.028 0 0 1-8.885 4.026c-17.833 6.953-36.974 8.167-55.177 3.698-.484-.13-.969-.245-1.443-.37-.302-.083-.599-.151-.9-.245-.09-.02-.173-.046-.267-.067-.4-.115-.807-.235-1.208-.349-.38-.104-.776-.219-1.156-.344-.02 0-.057 0-.078-.016-.38-.125-.776-.239-1.157-.369-.37-.115-.723-.23-1.083-.344-.265-.094-.541-.198-.818-.292a16.565 16.565 0 0 1-.817-.286c-.073-.026-.151-.047-.224-.084a35.546 35.546 0 0 1-.99-.354l-1.093-.416c-.75-.292-1.49-.579-2.23-.891-.24-.104-.494-.208-.74-.313-.103-.046-.218-.093-.322-.14-.068-.031-.125-.047-.182-.078-.162-.073-.334-.141-.51-.219-.267-.12-.532-.234-.819-.359-.171-.084-.359-.162-.53-.245-.105-.047-.194-.089-.298-.125-.234-.115-.453-.209-.682-.323a144.861 144.861 0 0 1 6.438-8.761c.218.094.437.193.645.287-.208-.104-.427-.193-.645-.287 26.463-33.421 66.854-55.255 112.385-56.713 1.62-.057 3.245-.078 4.87-.078 1.995 0 3.979.036 5.953.114-.198.995-.417 1.99-.646 2.985Z" clip-rule="evenodd"/><path fill="#3246A1" d="M60.166 180.844c.22.083.438.182.646.276-.208-.104-.427-.193-.635-.287a150.39 150.39 0 0 1 32.87-30.698c-22.766-15.598-50.058-25.067-79.5-26.015a187.18 187.18 0 0 0-4.87-.078c-1.995 0-3.98.047-5.964.114.198 1.006.427 1.99.646 2.985.37 1.557.776 3.119 1.224 4.656.104.38.219.75.333 1.13.01.057.037.141.058.208.114.349.219.709.338 1.063.089.312.193.635.308.937.13.438.276.87.427 1.297.093.276.198.563.312.855.104.286.198.567.313.854l.312.854c.115.312.24.614.37.937.089.256.193.511.297.761.219.557.463 1.125.693 1.687.125.266.244.547.359.813 0 .01.01.021.02.021.105.265.22.531.334.796.13.292.266.579.406.87.391.854.797 1.698 1.214 2.542.125.24.25.484.364.729.027.031.037.057.058.089.177.359.36.708.547 1.067.25.459.494.933.76 1.407.104.198.219.395.333.588.162.313.334.625.521.927.115.209.23.406.344.615.188.307.38.635.568.943.125.223.25.416.38.625.172.291.354.567.531.854.104.177.219.349.323.521.24.385.484.765.724 1.135a93.077 93.077 0 0 0 2.839 4.068c.312.427.625.843.947 1.27.021.037.068.079.089.115.323.427.662.844.995 1.26 0 .021.01.037.036.047.334.427.667.834 1 1.25.36.427.719.855 1.073 1.271.36.412.73.844 1.1 1.245.353.417.723.823 1.093 1.224.417.453.833.906 1.27 1.354.298.313.61.625.923.948.078.083.161.172.255.255.265.266.541.531.807.797.104.104.209.208.313.302.354.354.703.693 1.057 1.026.406.38.807.75 1.213 1.11.401.369.808.729 1.224 1.088.277.255.573.505.875.75.287.255.579.495.875.74.303.265.605.51.912.76.312.245.625.5.937.74.23.187.448.359.678.531.187.151.385.302.567.443.276.218.552.427.844.625.276.218.552.416.839.619.291.224.578.433.88.625a88.098 88.098 0 0 0 10.98 6.73 78.517 78.517 0 0 0 2.978 1.463 150.842 150.842 0 0 1 6.438-8.734Z"/><mask id="a" width="1" height="2" x="122" y="170" maskUnits="userSpaceOnUse" style="mask-type:luminance"><path fill="#fff" d="M122.188 170.333H123v1.334h-.812v-1.334Z"/></mask><g mask="url(#a)"><mask id="b" width="1" height="1" x="122" y="170" maskUnits="userSpaceOnUse" style="mask-type:luminance"><path fill="#fff" d="M122.901 170.661a16.72 16.72 0 0 1-.646.276c.219-.088.427-.192.646-.286v.01Z"/></mask><g mask="url(#b)"><mask id="c" width="2" height="2" x="122" y="170" maskUnits="userSpaceOnUse" style="mask-type:luminance"><path fill="#fff" d="m123.052 170.755-.541-.417-.396.485.547.427.39-.495Z"/></mask><g mask="url(#c)"><path fill="url(#d)" d="m123.042 170.76-.542-.422-.385.49.541.427.386-.495Z"/></g></g></g><mask id="e" width="2" height="2" x="113" y="151" maskUnits="userSpaceOnUse" style="mask-type:luminance"><path fill="#fff" d="M113.667 151.667H115V153h-1.333v-1.333Z"/></mask><g mask="url(#e)"><mask id="f" width="2" height="1" x="113" y="152" maskUnits="userSpaceOnUse" style="mask-type:luminance"><path fill="#fff" d="m114.411 152.24-.463.208c.151-.068.302-.141.453-.208h.01Z"/></mask><g mask="url(#f)"><mask id="g" width="2" height="1" x="113" y="152" maskUnits="userSpaceOnUse" style="mask-type:luminance"><path fill="#fff" d="m114.516 152.323-.396-.313-.276.36.396.297.276-.344Z"/></mask><g mask="url(#g)"><path fill="url(#h)" d="m114.511 152.318-.386-.302-.276.354.386.302.276-.354Z"/></g></g></g><mask id="i" width="3" height="3" x="122" y="169" maskUnits="userSpaceOnUse" style="mask-type:luminance"><path fill="#fff" d="M122.188 169h2.145v2.667h-2.145V169Z"/></mask><g mask="url(#i)"><mask id="j" width="2" height="1" x="122" y="170" maskUnits="userSpaceOnUse" style="mask-type:luminance"><path fill="#fff" d="M123.64 170.224c-.208.094-.427.198-.645.286.208-.104.427-.192.645-.286.011 0 .011 0 0 0Z"/></mask><g mask="url(#j)"><mask id="k" width="2" height="2" x="122" y="169" maskUnits="userSpaceOnUse" style="mask-type:luminance"><path fill="#fff" d="m123.792 170.328-.558-.427-.39.495.552.437.396-.505Z"/></mask><g mask="url(#k)"><path fill="url(#l)" d="m123.792 170.333-.547-.432-.391.5.547.432.391-.5Z"/></g></g></g><mask id="m" width="4" height="2" x="113" y="151" maskUnits="userSpaceOnUse" style="mask-type:luminance"><path fill="#fff" d="M113.667 151.12h2.614V153h-2.614v-1.88Z"/></mask><g mask="url(#m)"><mask id="n" width="2" height="1" x="114" y="151" maskUnits="userSpaceOnUse" style="mask-type:luminance"><path fill="#fff" d="M115.021 151.526c-.162.068-.313.136-.474.203.151-.067.312-.135.463-.203h.011Z"/></mask><g mask="url(#n)"><mask id="o" width="2" height="1" x="114" y="151" maskUnits="userSpaceOnUse" style="mask-type:luminance"><path fill="#fff" d="m115.115 151.604-.391-.312-.281.359.396.313.276-.36Z"/></mask><g mask="url(#o)"><path fill="url(#p)" d="m115.125 151.604-.396-.312-.281.359.396.313.281-.36Z"/></g></g></g><mask id="q" width="29" height="70" x="0" y="42" maskUnits="userSpaceOnUse" style="mask-type:luminance"><path fill="#fff" d="M.594 42.333h27.74v69.334H.593V42.333Z"/></mask><g mask="url(#q)"><path fill="#3BB63E" d="M19.463 107.698c0 1.229.027 2.453.084 3.667a160.88 160.88 0 0 0-10.87-.37c-2.177 0-4.36.047-6.469.125l-.968.036a92.105 92.105 0 0 1 .437-15.427c2.224-19.719 10.75-37.943 23.844-52.182a61.905 61.905 0 0 0-.771 5.614l-.01.047a64.672 64.672 0 0 0 1.807 21.985 56.17 56.17 0 0 0 .88 3.052c-5.099 10.052-7.963 21.411-7.963 33.453Z"/></g><mask id="r" width="66" height="101" x="71" y="0" maskUnits="userSpaceOnUse" style="mask-type:luminance"><path fill="#fff" d="M71 .23h65.333V101H71V.23Z"/></mask><g mask="url(#r)"><path fill="#2F8B3B" d="M133.802 60.203a67.92 67.92 0 0 1-.495 2.1 42.792 42.792 0 0 1-.542 1.952c-.171.605-.359 1.203-.541 1.808-.104.296-.209.62-.323.932-.141.443-.302.87-.464 1.307-.047.125-.078.255-.125.37-.187.531-.39 1.042-.614 1.563a3.626 3.626 0 0 1-.146.354c-.188.474-.37.948-.589 1.411-.187.438-.395.89-.604 1.318-.219.51-.458.984-.703 1.469-.01.01-.01.02-.021.03a40.816 40.816 0 0 1-.843 1.647 64.648 64.648 0 0 1-1.902 3.291 42.076 42.076 0 0 1-1.072 1.688c-.396.578-.776 1.146-1.178 1.687a63.652 63.652 0 0 1-1.463 1.99c-.323.427-.672.854-1.016 1.27a61.427 61.427 0 0 1-3.51 3.954c-.25.266-.516.531-.781.807-.407.39-.834.787-1.25 1.188-.297.302-.61.593-.943.87a59.41 59.41 0 0 1-5.068 4.145c-.307.245-.63.474-.953.709-.708.484-1.422.958-2.125 1.421a34.11 34.11 0 0 1-1.5.933.24.24 0 0 1-.068.047c7.891-12.563 11.87-27.735 10.417-43.636a78.031 78.031 0 0 0-1.198-7.953 71.822 71.822 0 0 0-1.042-4.344 68.85 68.85 0 0 1-.817 6.24 70.037 70.037 0 0 1-5.802 18.016 69.648 69.648 0 0 1-9.276 14.447 67.195 67.195 0 0 1-3.933 4.344c-3.359-9.073-9.057-17.39-17.005-24.015a56.738 56.738 0 0 0-5.297-3.907c.01-.854.047-1.718.094-2.599.02-.646.068-1.28.115-1.916.036-.396.067-.787.114-1.193.068-.682.151-1.365.245-2.047.02-.182.042-.354.068-.542.057-.39.114-.786.182-1.177.198-1.182.406-2.359.672-3.552.229-1.015.484-2.02.734-3.015.063-.172.094-.344.151-.521.115-.427.245-.854.37-1.281.083-.209.14-.428.208-.646.141-.438.303-.901.448-1.339a34.91 34.91 0 0 1 .646-1.792 64.79 64.79 0 0 1 1.547-3.791c.417-.901.833-1.781 1.292-2.662.302-.609.614-1.223.948-1.822.057-.084.104-.172.15-.256.24-.453.506-.9.761-1.328a64.22 64.22 0 0 1 1.281-2.067c.266-.428.531-.823.808-1.23.437-.656.9-1.291 1.349-1.916.286-.407.588-.787.874-1.167a60.839 60.839 0 0 1 4.803-5.526c.312-.323.62-.636.942-.948a33.231 33.231 0 0 1 1.72-1.625c.426-.396.869-.776 1.306-1.156.105-.094.193-.177.287-.245.333-.302.682-.578 1.026-.865.36-.291.703-.567 1.073-.843.323-.266.672-.521 1.005-.766.38-.286.76-.578 1.14-.844.38-.276.787-.552 1.167-.807.521-.37 1.037-.693 1.578-1.042a73.662 73.662 0 0 1 1.537-.937c.021-.01.036-.021.057-.031.141-.094.302-.178.427-.245.37-.23.729-.438 1.094-.636.417-.24.844-.474 1.271-.692a45.371 45.371 0 0 1 4.015-1.943c.402-.193.818-.36 1.245-.531a36.265 36.265 0 0 1 3.407-1.292c.562-.208 1.13-.406 1.718-.594a84.105 84.105 0 0 1 2.224 2.14c.36.35.683.72 1.026 1.074.235.219.438.453.646.708.37.38.719.771 1.063 1.177.14.162.265.302.38.453.427.485.833.97 1.224 1.48a32.438 32.438 0 0 1 1.536 2.01c.219.297.448.599.667.922.312.427.625.87.922 1.318.083.104.14.208.208.322.266.36.511.74.75 1.157.287.427.568.88.818 1.317.359.568.693 1.157 1.015 1.745a58.78 58.78 0 0 1 1.573 3.016c.058.13.115.255.172.37.068.104.125.218.162.312.265.578.531 1.156.781 1.745.323.729.625 1.469.927 2.234.021.058.042.125.078.183.255.682.511 1.364.75 2.067a80.4 80.4 0 0 1 .761 2.302 62.731 62.731 0 0 1 2.218 26.245 58.773 58.773 0 0 1-.984 5.677Z"/></g><path fill="#3BB63E" d="M97.245 83.234a67.225 67.225 0 0 1-3.933 4.344c-3.359-9.073-9.057-17.39-17.005-24.015a56.74 56.74 0 0 0-5.297-3.907 1.115 1.115 0 0 0-.208-.135 46.752 46.752 0 0 0-2.896-1.77 52.265 52.265 0 0 1 2.906 3.765c.084.12.162.208.22.312A56.955 56.955 0 0 1 80.62 85.74a55.35 55.35 0 0 1 .682 8.948l.01.01c.01.23 0 .474 0 .682a56.579 56.579 0 0 1-1.109 10.495c-13.75-2.417-26.484-10.39-34.583-23.115a51.608 51.608 0 0 1-6.474-14.838 51.995 51.995 0 0 1-1.433-17.547 52.488 52.488 0 0 1 2.162-10.849 51.543 51.543 0 0 1 3.458-8.427 51.904 51.904 0 0 1 21.38 3.62 51.487 51.487 0 0 1 9.573 5.026c.047.02.094.057.125.083a45.276 45.276 0 0 1 3.427 2.526c4.329 3.448 8.146 7.651 11.287 12.589a51.546 51.546 0 0 1 8.12 28.291Z"/><mask id="s" width="41" height="82" x="145" y="30" maskUnits="userSpaceOnUse" style="mask-type:luminance"><path fill="#fff" d="M145.812 30.333h39.662v81.334h-39.662V30.333Z"/></mask><g mask="url(#s)"><path fill="#2F8B3B" d="M184.047 90.099c-4.396-24.85-18.323-45.584-37.344-59.125 1.75 8.276 2.089 16.724 1 25.219-.057.437-.114.885-.182 1.328 12.161 13.187 19.588 30.807 19.588 50.177a76.8 76.8 0 0 1-.093 3.63 166.699 166.699 0 0 1 10.406-.333c2.125 0 4.292.047 6.448.125l1.469.057c.369-6.922-.047-13.969-1.292-21.078Z"/></g><mask id="t" width="3" height="2" x="122" y="170" maskUnits="userSpaceOnUse" style="mask-type:luminance"><path fill="#fff" d="M122.188 170.333h2.145v1.334h-2.145v-1.334Z"/></mask><g mask="url(#t)"><mask id="u" width="2" height="1" x="122" y="170" maskUnits="userSpaceOnUse" style="mask-type:luminance"><path fill="#fff" d="M123.156 170.443c-.208.093-.427.182-.646.276.209-.094.438-.183.646-.287.011.011.011.011 0 .011Z"/></mask><g mask="url(#u)"><mask id="v" width="2" height="2" x="122" y="170" maskUnits="userSpaceOnUse" style="mask-type:luminance"><path fill="#fff" d="m123.307 170.547-.557-.427-.38.494.541.428.396-.495Z"/></mask><g mask="url(#v)"><path fill="url(#w)" d="m123.307 170.541-.547-.432-.39.5.547.432.39-.5Z"/></g></g></g><mask id="x" width="2" height="2" x="113" y="151" maskUnits="userSpaceOnUse" style="mask-type:luminance"><path fill="#fff" d="M113.667 151.667H115V153h-1.333v-1.333Z"/></mask><g mask="url(#x)"><mask id="y" width="1" height="2" x="114" y="151" maskUnits="userSpaceOnUse" style="mask-type:luminance"><path fill="#fff" d="M114.583 151.87c-.151.067-.302.13-.463.198l.463-.209c.011.011.011.011 0 .011Z"/></mask><g mask="url(#y)"><mask id="z" width="1" height="2" x="114" y="151" maskUnits="userSpaceOnUse" style="mask-type:luminance"><path fill="#fff" d="m114.687 151.938-.39-.297-.276.359.39.297.276-.359Z"/></mask><g mask="url(#z)"><path fill="url(#A)" d="m114.698 151.937-.396-.307-.281.36.395.307.282-.36Z"/></g></g></g><defs><linearGradient id="d" x1="122.776" x2="122.391" y1="170.552" y2="171.045" gradientUnits="userSpaceOnUse"><stop stop-color="#3AAA53"/><stop offset=".031" stop-color="#3BAA53"/><stop offset=".063" stop-color="#3BAB52"/><stop offset=".078" stop-color="#3CAB52"/><stop offset=".094" stop-color="#3CAC51"/><stop offset=".109" stop-color="#3CAC51"/><stop offset=".125" stop-color="#3DAC50"/><stop offset=".141" stop-color="#3DAC50"/><stop offset=".148" stop-color="#3DAD4F"/><stop offset=".156" stop-color="#3DAD4F"/><stop offset=".172" stop-color="#3DAD4E"/><stop offset=".188" stop-color="#3EAE4E"/><stop offset=".203" stop-color="#3EAE4D"/><stop offset=".219" stop-color="#3FAE4D"/><stop offset=".234" stop-color="#3FAF4D"/><stop offset=".25" stop-color="#3FAF4C"/><stop offset=".266" stop-color="#3FB04C"/><stop offset=".281" stop-color="#40B04C"/><stop offset=".313" stop-color="#40B04B"/><stop offset=".328" stop-color="#40B14B"/><stop offset=".344" stop-color="#41B14A"/><stop offset=".359" stop-color="#41B14A"/><stop offset=".375" stop-color="#42B249"/><stop offset=".391" stop-color="#42B249"/><stop offset=".406" stop-color="#43B248"/><stop offset=".422" stop-color="#43B348"/><stop offset=".438" stop-color="#43B347"/><stop offset=".453" stop-color="#44B447"/><stop offset=".469" stop-color="#44B446"/><stop offset=".484" stop-color="#45B446"/><stop offset=".5" stop-color="#45B445"/><stop offset=".516" stop-color="#46B544"/><stop offset=".531" stop-color="#46B544"/><stop offset=".547" stop-color="#46B543"/><stop offset=".563" stop-color="#46B643"/><stop offset=".578" stop-color="#46B643"/><stop offset=".594" stop-color="#47B642"/><stop offset=".602" stop-color="#48B641"/><stop offset=".609" stop-color="#48B641"/><stop offset=".625" stop-color="#48B740"/><stop offset=".641" stop-color="#49B740"/><stop offset=".656" stop-color="#49B83F"/><stop offset=".672" stop-color="#49B83F"/><stop offset=".688" stop-color="#49B83E"/><stop offset=".703" stop-color="#4AB83E"/><stop offset=".719" stop-color="#4AB93D"/><stop offset=".75" stop-color="#4BB93D"/><stop offset=".758" stop-color="#4BB93C"/><stop offset=".766" stop-color="#4BBA3C"/><stop offset=".781" stop-color="#4CBA3B"/><stop offset=".797" stop-color="#4CBA3B"/><stop offset=".813" stop-color="#4DBB3B"/><stop offset=".844" stop-color="#4DBB3A"/><stop offset=".859" stop-color="#4DBB3A"/><stop offset=".875" stop-color="#4EBB39"/><stop offset=".883" stop-color="#4FBB39"/><stop offset=".891" stop-color="#4FBC39"/><stop offset=".906" stop-color="#50BC38"/><stop offset=".922" stop-color="#50BD38"/><stop offset=".938" stop-color="#51BD37"/><stop offset=".969" stop-color="#52BD37"/><stop offset="1" stop-color="#53BE37"/></linearGradient><linearGradient id="h" x1="114.324" x2="114.048" y1="152.172" y2="152.525" gradientUnits="userSpaceOnUse"><stop stop-color="#3AAA54"/><stop offset=".016" stop-color="#3AAA53"/><stop offset=".031" stop-color="#3BAA53"/><stop offset=".047" stop-color="#3BAA53"/><stop offset=".063" stop-color="#3BAB53"/><stop offset=".078" stop-color="#3BAB52"/><stop offset=".094" stop-color="#3CAC52"/><stop offset=".109" stop-color="#3CAC51"/><stop offset=".125" stop-color="#3CAC51"/><stop offset=".141" stop-color="#3DAC50"/><stop offset=".156" stop-color="#3DAC50"/><stop offset=".164" stop-color="#3DAD4F"/><stop offset=".172" stop-color="#3DAD4E"/><stop offset=".188" stop-color="#3DAD4E"/><stop offset=".203" stop-color="#3EAE4E"/><stop offset=".219" stop-color="#3EAE4E"/><stop offset=".234" stop-color="#3FAE4D"/><stop offset=".25" stop-color="#3FAF4D"/><stop offset=".266" stop-color="#3FAF4C"/><stop offset=".281" stop-color="#3FB04C"/><stop offset=".297" stop-color="#40B04C"/><stop offset=".313" stop-color="#40B04B"/><stop offset=".328" stop-color="#40B04B"/><stop offset=".344" stop-color="#40B14B"/><stop offset=".359" stop-color="#41B14A"/><stop offset=".375" stop-color="#41B14A"/><stop offset=".391" stop-color="#42B249"/><stop offset=".406" stop-color="#42B249"/><stop offset=".422" stop-color="#43B248"/><stop offset=".438" stop-color="#43B348"/><stop offset=".453" stop-color="#43B347"/><stop offset=".469" stop-color="#44B447"/><stop offset=".484" stop-color="#44B446"/><stop offset=".5" stop-color="#45B446"/><stop offset=".516" stop-color="#45B445"/><stop offset=".531" stop-color="#46B544"/><stop offset=".547" stop-color="#46B544"/><stop offset=".563" stop-color="#46B543"/><stop offset=".594" stop-color="#46B643"/><stop offset=".609" stop-color="#47B642"/><stop offset=".617" stop-color="#48B641"/><stop offset=".625" stop-color="#48B641"/><stop offset=".641" stop-color="#48B740"/><stop offset=".656" stop-color="#49B740"/><stop offset=".688" stop-color="#49B83F"/><stop offset=".703" stop-color="#49B83E"/><stop offset=".719" stop-color="#4AB83E"/><stop offset=".75" stop-color="#4AB93D"/><stop offset=".781" stop-color="#4BB93D"/><stop offset=".797" stop-color="#4BBA3C"/><stop offset=".813" stop-color="#4CBA3B"/><stop offset=".828" stop-color="#4CBB3B"/><stop offset=".844" stop-color="#4DBB3A"/><stop offset=".859" stop-color="#4DBB3A"/><stop offset=".875" stop-color="#4EBB39"/><stop offset=".891" stop-color="#4EBC39"/><stop offset=".898" stop-color="#4FBC39"/><stop offset=".906" stop-color="#4FBC39"/><stop offset=".922" stop-color="#50BC39"/><stop offset=".938" stop-color="#50BD38"/><stop offset=".953" stop-color="#51BD38"/><stop offset=".969" stop-color="#52BD38"/><stop offset="1" stop-color="#52BD37"/></linearGradient><linearGradient id="l" x1="123.522" x2="123.132" y1="170.122" y2="170.62" gradientUnits="userSpaceOnUse"><stop stop-color="#3AAA54"/><stop offset=".031" stop-color="#3AAA53"/><stop offset=".063" stop-color="#3BAB52"/><stop offset=".078" stop-color="#3BAB52"/><stop offset=".094" stop-color="#3CAC52"/><stop offset=".109" stop-color="#3CAC51"/><stop offset=".125" stop-color="#3CAC51"/><stop offset=".141" stop-color="#3DAC50"/><stop offset=".148" stop-color="#3DAC50"/><stop offset=".156" stop-color="#3DAD4F"/><stop offset=".172" stop-color="#3DAD4E"/><stop offset=".188" stop-color="#3DAD4E"/><stop offset=".203" stop-color="#3EAE4D"/><stop offset=".219" stop-color="#3FAE4D"/><stop offset=".234" stop-color="#3FAE4D"/><stop offset=".25" stop-color="#3FAF4C"/><stop offset=".266" stop-color="#3FAF4C"/><stop offset=".273" stop-color="#3FB04C"/><stop offset=".281" stop-color="#40B04C"/><stop offset=".313" stop-color="#40B04B"/><stop offset=".32" stop-color="#40B04B"/><stop offset=".328" stop-color="#40B14B"/><stop offset=".344" stop-color="#40B14A"/><stop offset=".359" stop-color="#41B14A"/><stop offset=".375" stop-color="#42B149"/><stop offset=".391" stop-color="#42B249"/><stop offset=".406" stop-color="#43B248"/><stop offset=".422" stop-color="#43B248"/><stop offset=".438" stop-color="#43B347"/><stop offset=".453" stop-color="#44B347"/><stop offset=".469" stop-color="#44B447"/><stop offset=".484" stop-color="#45B446"/><stop offset=".5" stop-color="#45B446"/><stop offset=".516" stop-color="#46B445"/><stop offset=".531" stop-color="#46B544"/><stop offset=".547" stop-color="#46B544"/><stop offset=".563" stop-color="#46B543"/><stop offset=".594" stop-color="#46B643"/><stop offset=".609" stop-color="#47B742"/><stop offset=".625" stop-color="#48B741"/><stop offset=".641" stop-color="#48B740"/><stop offset=".656" stop-color="#49B840"/><stop offset=".688" stop-color="#49B83F"/><stop offset=".703" stop-color="#4AB83E"/><stop offset=".719" stop-color="#4AB83E"/><stop offset=".734" stop-color="#4AB93D"/><stop offset=".75" stop-color="#4BB93C"/><stop offset=".766" stop-color="#4BB93C"/><stop offset=".781" stop-color="#4BBA3C"/><stop offset=".813" stop-color="#4CBA3B"/><stop offset=".844" stop-color="#4DBB3A"/><stop offset=".875" stop-color="#4DBB3A"/><stop offset=".891" stop-color="#4EBB39"/><stop offset=".898" stop-color="#4FBC39"/><stop offset=".906" stop-color="#4FBC39"/><stop offset=".922" stop-color="#50BC38"/><stop offset=".938" stop-color="#50BD38"/><stop offset=".953" stop-color="#51BD37"/><stop offset=".969" stop-color="#51BD37"/><stop offset=".984" stop-color="#52BD37"/><stop offset="1" stop-color="#52BE37"/></linearGradient><linearGradient id="p" x1="114.923" x2="114.642" y1="151.446" y2="151.804" gradientUnits="userSpaceOnUse"><stop stop-color="#3AAA54"/><stop offset=".031" stop-color="#3AAA53"/><stop offset=".063" stop-color="#3BAB52"/><stop offset=".07" stop-color="#3BAB52"/><stop offset=".078" stop-color="#3CAB52"/><stop offset=".094" stop-color="#3CAC52"/><stop offset=".109" stop-color="#3CAC51"/><stop offset=".125" stop-color="#3CAC51"/><stop offset=".141" stop-color="#3DAC50"/><stop offset=".148" stop-color="#3DAC50"/><stop offset=".156" stop-color="#3DAD4F"/><stop offset=".172" stop-color="#3DAD4F"/><stop offset=".188" stop-color="#3DAD4E"/><stop offset=".203" stop-color="#3EAE4E"/><stop offset=".219" stop-color="#3FAE4D"/><stop offset=".234" stop-color="#3FAE4D"/><stop offset=".25" stop-color="#3FAF4C"/><stop offset=".266" stop-color="#3FAF4C"/><stop offset=".281" stop-color="#40B04C"/><stop offset=".313" stop-color="#40B04B"/><stop offset=".328" stop-color="#40B04B"/><stop offset=".344" stop-color="#41B14A"/><stop offset=".359" stop-color="#41B14A"/><stop offset=".375" stop-color="#42B249"/><stop offset=".391" stop-color="#42B249"/><stop offset=".406" stop-color="#43B248"/><stop offset=".422" stop-color="#43B348"/><stop offset=".438" stop-color="#43B347"/><stop offset=".453" stop-color="#44B447"/><stop offset=".469" stop-color="#44B446"/><stop offset=".484" stop-color="#45B446"/><stop offset=".492" stop-color="#45B446"/><stop offset=".5" stop-color="#45B445"/><stop offset=".516" stop-color="#46B545"/><stop offset=".531" stop-color="#46B544"/><stop offset=".547" stop-color="#46B544"/><stop offset=".563" stop-color="#46B643"/><stop offset=".578" stop-color="#46B643"/><stop offset=".594" stop-color="#47B642"/><stop offset=".602" stop-color="#47B642"/><stop offset=".609" stop-color="#48B641"/><stop offset=".625" stop-color="#48B740"/><stop offset=".641" stop-color="#48B740"/><stop offset=".656" stop-color="#49B83F"/><stop offset=".672" stop-color="#49B83F"/><stop offset=".688" stop-color="#49B83E"/><stop offset=".703" stop-color="#49B83E"/><stop offset=".719" stop-color="#4AB93D"/><stop offset=".75" stop-color="#4AB93D"/><stop offset=".758" stop-color="#4BB93D"/><stop offset=".766" stop-color="#4BBA3C"/><stop offset=".781" stop-color="#4CBA3B"/><stop offset=".797" stop-color="#4CBA3B"/><stop offset=".813" stop-color="#4CBA3B"/><stop offset=".828" stop-color="#4DBB3A"/><stop offset=".844" stop-color="#4DBB3A"/><stop offset=".859" stop-color="#4EBB39"/><stop offset=".875" stop-color="#4EBC39"/><stop offset=".883" stop-color="#4EBC39"/><stop offset=".891" stop-color="#4FBC39"/><stop offset=".906" stop-color="#50BC39"/><stop offset=".922" stop-color="#50BD39"/><stop offset=".938" stop-color="#51BD38"/><stop offset=".969" stop-color="#52BD38"/><stop offset="1" stop-color="#52BD37"/></linearGradient><linearGradient id="w" x1="123.033" x2="122.643" y1="170.326" y2="170.824" gradientUnits="userSpaceOnUse"><stop stop-color="#3AAA54"/><stop offset=".016" stop-color="#3AAA53"/><stop offset=".031" stop-color="#3BAA53"/><stop offset=".047" stop-color="#3BAA53"/><stop offset=".063" stop-color="#3BAB53"/><stop offset=".078" stop-color="#3BAB52"/><stop offset=".094" stop-color="#3CAC52"/><stop offset=".109" stop-color="#3CAC51"/><stop offset=".125" stop-color="#3CAC51"/><stop offset=".141" stop-color="#3DAC50"/><stop offset=".156" stop-color="#3DAC50"/><stop offset=".188" stop-color="#3DAD4F"/><stop offset=".203" stop-color="#3EAD4E"/><stop offset=".219" stop-color="#3EAE4E"/><stop offset=".234" stop-color="#3FAE4D"/><stop offset=".25" stop-color="#3FAF4D"/><stop offset=".266" stop-color="#3FAF4C"/><stop offset=".281" stop-color="#3FB04C"/><stop offset=".297" stop-color="#40B04C"/><stop offset=".313" stop-color="#40B04B"/><stop offset=".328" stop-color="#40B04B"/><stop offset=".344" stop-color="#40B14B"/><stop offset=".359" stop-color="#41B14A"/><stop offset=".375" stop-color="#41B14A"/><stop offset=".391" stop-color="#42B249"/><stop offset=".406" stop-color="#42B249"/><stop offset=".422" stop-color="#43B248"/><stop offset=".438" stop-color="#43B348"/><stop offset=".453" stop-color="#43B347"/><stop offset=".469" stop-color="#44B347"/><stop offset=".484" stop-color="#44B446"/><stop offset=".5" stop-color="#45B446"/><stop offset=".516" stop-color="#45B445"/><stop offset=".531" stop-color="#46B544"/><stop offset=".547" stop-color="#46B544"/><stop offset=".563" stop-color="#46B543"/><stop offset=".594" stop-color="#46B643"/><stop offset=".609" stop-color="#47B642"/><stop offset=".617" stop-color="#48B641"/><stop offset=".625" stop-color="#48B741"/><stop offset=".641" stop-color="#48B740"/><stop offset=".656" stop-color="#49B740"/><stop offset=".688" stop-color="#49B83F"/><stop offset=".703" stop-color="#49B83E"/><stop offset=".719" stop-color="#4AB83E"/><stop offset=".75" stop-color="#4AB93D"/><stop offset=".766" stop-color="#4BB93D"/><stop offset=".773" stop-color="#4BBA3C"/><stop offset=".781" stop-color="#4BBA3B"/><stop offset=".813" stop-color="#4CBA3B"/><stop offset=".844" stop-color="#4DBB3A"/><stop offset=".859" stop-color="#4DBB3A"/><stop offset=".875" stop-color="#4EBB39"/><stop offset=".891" stop-color="#4EBC39"/><stop offset=".898" stop-color="#4FBC39"/><stop offset=".906" stop-color="#4FBC39"/><stop offset=".922" stop-color="#50BC38"/><stop offset=".938" stop-color="#50BD38"/><stop offset=".953" stop-color="#51BD37"/><stop offset=".969" stop-color="#52BD37"/><stop offset="1" stop-color="#52BD37"/></linearGradient><linearGradient id="A" x1="114.5" x2="114.219" y1="151.784" y2="152.143" gradientUnits="userSpaceOnUse"><stop stop-color="#3AAA54"/><stop offset=".031" stop-color="#3AAA54"/><stop offset=".063" stop-color="#3BAA53"/><stop offset=".094" stop-color="#3BAB52"/><stop offset=".109" stop-color="#3CAB52"/><stop offset=".125" stop-color="#3CAC51"/><stop offset=".141" stop-color="#3CAC51"/><stop offset=".156" stop-color="#3DAC50"/><stop offset=".172" stop-color="#3DAC50"/><stop offset=".18" stop-color="#3DAD4F"/><stop offset=".188" stop-color="#3DAD4F"/><stop offset=".203" stop-color="#3DAD4E"/><stop offset=".219" stop-color="#3EAE4E"/><stop offset=".234" stop-color="#3EAE4D"/><stop offset=".25" stop-color="#3FAE4D"/><stop offset=".266" stop-color="#3FAF4D"/><stop offset=".281" stop-color="#3FAF4C"/><stop offset=".297" stop-color="#3FB04C"/><stop offset=".313" stop-color="#40B04C"/><stop offset=".344" stop-color="#40B04B"/><stop offset=".359" stop-color="#40B14B"/><stop offset=".375" stop-color="#41B14A"/><stop offset=".391" stop-color="#41B14A"/><stop offset=".406" stop-color="#42B249"/><stop offset=".422" stop-color="#42B249"/><stop offset=".438" stop-color="#43B248"/><stop offset=".453" stop-color="#43B348"/><stop offset=".469" stop-color="#43B347"/><stop offset=".484" stop-color="#44B447"/><stop offset=".5" stop-color="#45B446"/><stop offset=".516" stop-color="#45B446"/><stop offset=".523" stop-color="#45B445"/><stop offset=".531" stop-color="#46B545"/><stop offset=".547" stop-color="#46B544"/><stop offset=".563" stop-color="#46B544"/><stop offset=".578" stop-color="#46B543"/><stop offset=".594" stop-color="#46B643"/><stop offset=".609" stop-color="#47B642"/><stop offset=".625" stop-color="#47B642"/><stop offset=".633" stop-color="#48B641"/><stop offset=".641" stop-color="#48B740"/><stop offset=".656" stop-color="#48B740"/><stop offset=".672" stop-color="#49B840"/><stop offset=".688" stop-color="#49B83F"/><stop offset=".703" stop-color="#49B83F"/><stop offset=".719" stop-color="#49B83E"/><stop offset=".734" stop-color="#4AB83E"/><stop offset=".75" stop-color="#4AB93D"/><stop offset=".781" stop-color="#4BB93D"/><stop offset=".789" stop-color="#4BBA3C"/><stop offset=".797" stop-color="#4CBA3B"/><stop offset=".813" stop-color="#4CBA3B"/><stop offset=".828" stop-color="#4CBA3B"/><stop offset=".844" stop-color="#4DBB3B"/><stop offset=".875" stop-color="#4DBB3A"/><stop offset=".891" stop-color="#4EBB39"/><stop offset=".906" stop-color="#4EBB39"/><stop offset=".914" stop-color="#4FBC39"/><stop offset=".922" stop-color="#50BC38"/><stop offset=".938" stop-color="#50BC38"/><stop offset=".953" stop-color="#51BD38"/><stop offset=".969" stop-color="#51BD37"/><stop offset="1" stop-color="#52BD37"/></linearGradient></defs></svg>