<svg xmlns="http://www.w3.org/2000/svg" width="201" height="125" fill="none"><mask id="a" width="100" height="118" x="0" y="7" maskUnits="userSpaceOnUse" style="mask-type:luminance"><path fill="#fff" d="M.26 7h99.073v117.833H.26V7Z"/></mask><g mask="url(#a)"><path fill="#498536" d="M91.406 91.969c-.36-1.11-.833-2.172-1.255-3.25-.412-1.084-.927-2.13-1.39-3.188-.46-1.062-1.011-2.083-1.522-3.12-.494-1.041-1.088-2.036-1.63-3.052-.536-1.02-1.166-1.99-1.74-2.984-.583-.995-1.244-1.938-1.864-2.906-.62-.964-1.307-1.89-1.953-2.834-.662-.937-1.365-1.849-2.042-2.77l-2.135-2.688c18.307 28.911 19.24 50.177 19.635 59.609 6.995-33.895.86-56.187-.031-59.567a77.52 77.52 0 0 0-3.495-9.933c-1.37-3.244-3.073-6.359-4.974-9.338a68.35 68.35 0 0 0-6.38-8.48c-4.703-5.296-10.198-9.854-16.135-13.609a84.736 84.736 0 0 0-9.214-5.062 99.855 99.855 0 0 0-9.682-3.959c-6.563-2.307-13.318-3.968-20.136-5.083A133.77 133.77 0 0 0 15.172 8.48a131.38 131.38 0 0 0-5.188-.328c-.87-.036-1.74-.057-2.614-.068a59.937 59.937 0 0 0-2.72.016l-3.16.088-.704 3.037c-.156.672-.192.98-.255 1.422-.057.411-.094.802-.135 1.198L.318 15.01l-.026 1.141c-.01 1.516.062 3.005.229 4.469.323 2.927.916 5.77 1.729 8.531.844 2.734 1.807 5.432 3.02 7.984.553 1.308 1.245 2.532 1.87 3.792.657 1.245 1.38 2.443 2.068 3.662l2.25 3.53 2.401 3.397c.834 1.109 1.693 2.192 2.537 3.28.854 1.09 1.786 2.1 2.671 3.152.886 1.057 1.834 2.047 2.771 3.047.943.995 1.865 2.01 2.86 2.953l2.927 2.864 3.026 2.74 1.515 1.37 4.688 3.922 3.203 2.495c1.073.822 2.125 1.677 3.234 2.453l3.282 2.375c.552.39 1.088.796 1.646 1.177l1.687 1.12c2.25 1.484 4.474 3.005 6.781 4.385 2.292 1.411 4.563 2.854 6.901 4.167 2.334 1.328 4.636 2.718 7.006 3.963 2.37 1.255 4.703 2.578 7.093 3.781l7.188 3.578 5.234 2.61-1.38-5.547c-.401-1.625-.781-3.25-1.25-4.844-.432-1.614-.963-3.192-1.463-4.776a143.316 143.316 0 0 0-1.688-4.687c-.63-1.537-1.193-3.094-1.89-4.6-.672-1.515-1.334-3.03-2.09-4.504l-1.109-2.22-1.192-2.171-1.193-2.167-2.563-4.229-1.359-2.057-1.37-2.057c-.453-.688-.958-1.34-1.432-2.006-.984-1.317-1.896-2.682-2.953-3.937-1.047-1.271-2.037-2.573-3.115-3.807l-3.244-3.683c-1.115-1.192-2.26-2.36-3.391-3.541-1.11-1.198-2.333-2.276-3.516-3.401-1.187-1.115-2.354-2.245-3.614-3.287l-3.714-3.161 3.375 3.515c1.151 1.146 2.209 2.375 3.281 3.589 1.068 1.219 2.167 2.4 3.172 3.672 1.021 1.255 2.063 2.49 3.063 3.755l2.906 3.87c.958 1.297 1.833 2.65 2.755 3.974.927 1.307 1.755 2.692 2.62 4.041.422.682.875 1.35 1.27 2.047l1.199 2.089 1.192 2.083 1.11 2.135 1.11 2.13 1.015 2.167 1.016 2.172.927 2.209c.65 1.458 1.213 2.953 1.78 4.437.6 1.48 1.063 3.005 1.595 4.505.49 1.51.942 3.031 1.38 4.557.302 1.162.61 2.323.89 3.485l-1.817-1.016c-2.313-1.265-4.552-2.65-6.828-3.969-2.287-1.302-4.48-2.744-6.714-4.13-2.24-1.364-4.401-2.854-6.578-4.307-2.203-1.432-4.307-2.99-6.432-4.51-2.146-1.495-4.193-3.115-6.282-4.678-1.057-.77-2.047-1.614-3.057-2.432L41.5 69.187l-2.927-2.567-1.469-1.282-4.234-4-2.703-2.77c-.917-.907-1.756-1.88-2.62-2.834-.86-.958-1.735-1.9-2.526-2.906-.802-.995-1.657-1.958-2.417-2.98l-2.307-3.051-2.162-3.13-2-3.22c-.599-1.103-1.245-2.187-1.818-3.301-.53-1.125-1.15-2.224-1.614-3.375l-.745-1.709-.656-1.734a20.905 20.905 0 0 1-.61-1.74c-.182-.583-.39-1.166-.557-1.755A40.813 40.813 0 0 1 8.72 19.75a28.92 28.92 0 0 1-.167-3.333c.364.015.734.02 1.104.036 1.61.063 3.224.156 4.839.287 3.229.26 6.453.65 9.656 1.161 3.203.505 6.38 1.156 9.52 1.917 3.141.755 6.25 1.64 9.303 2.671a94.185 94.185 0 0 1 8.958 3.547c2.906 1.339 5.755 2.802 8.48 4.453 5.463 3.287 10.473 7.266 14.786 11.907a61.517 61.517 0 0 1 5.875 7.453c.448.656.89 1.318 1.286 2 .401.682.85 1.344 1.214 2.047l1.156 2.083 1.068 2.14a72.095 72.095 0 0 1 3.51 8.923c.927 3.073 1.745 6.198 2.297 9.39.172.797.281 1.6.401 2.401.115.802.25 1.604.349 2.412.156 1.62.39 3.229.463 4.86l.178 2.442.093 2.453c.084 1.635.058 3.276.058 4.922.005.5-.005 1-.021 1.5-.203-.714-.422-1.422-.625-2.136-.302-1.13-.724-2.213-1.094-3.317Z"/></g><mask id="b" width="99" height="113" x="102" y="0" maskUnits="userSpaceOnUse" style="mask-type:luminance"><path fill="#fff" d="M102 .833h98.26v111.5H102V.833Z"/></mask><g mask="url(#b)"><path fill="#80CC28" d="M110.031 79.791c.375-1.062.865-2.078 1.303-3.114.427-1.042.953-2.037 1.432-3.047.474-1.016 1.031-1.99 1.552-2.98.516-.994 1.109-1.942 1.661-2.91.552-.974 1.183-1.896 1.766-2.844.594-.943 1.26-1.839 1.885-2.76.631-.917 1.313-1.798 1.964-2.693.667-.891 1.37-1.75 2.052-2.625l2.135-2.547c-18.494 27.495-19.968 48.057-20.609 57.177-5.854-33 .682-54.412 1.63-57.662a75.848 75.848 0 0 1 3.651-9.52c1.417-3.11 3.146-6.079 5.068-8.912a67.045 67.045 0 0 1 6.406-8.036c4.693-5 10.136-9.26 15.985-12.74a82.496 82.496 0 0 1 9.052-4.656 99.125 99.125 0 0 1 9.484-3.568c6.417-2.052 13-3.484 19.63-4.375 3.323-.448 6.651-.77 9.995-.958 1.672-.094 3.349-.157 5.031-.177.844-.016 1.688-.01 2.537 0 .87.015 1.666.036 2.63.088l3.057.177.599 2.959c.136.65.162.947.214 1.38.041.396.068.776.094 1.166l.046 1.125-.005 1.11a36.683 36.683 0 0 1-.344 4.317 47.798 47.798 0 0 1-1.901 8.214c-.895 2.625-1.895 5.208-3.14 7.651-.568 1.25-1.271 2.412-1.912 3.62-.666 1.182-1.401 2.328-2.099 3.49l-2.27 3.354-2.417 3.224c-.839 1.047-1.698 2.072-2.547 3.109-.854 1.026-1.781 1.984-2.672 2.974-.885 1.005-1.828 1.932-2.765 2.875-.938.943-1.86 1.901-2.844 2.781l-2.912 2.698-3 2.573-1.51 1.281-4.641 3.672-3.166 2.328c-1.063.771-2.105 1.568-3.193 2.287l-3.245 2.213c-.542.365-1.078.74-1.625 1.094l-1.661 1.037c-2.219 1.374-4.417 2.791-6.688 4.067-2.255 1.302-4.489 2.636-6.792 3.844-2.296 1.224-4.557 2.51-6.89 3.651-2.323 1.151-4.615 2.37-6.969 3.469l-7.047 3.27-5.14 2.386 1.479-5.333c.437-1.563.849-3.125 1.349-4.657.453-1.546 1.015-3.062 1.541-4.583.563-1.505 1.141-3.01 1.756-4.495.656-1.469 1.244-2.963 1.958-4.396.687-1.453 1.37-2.9 2.141-4.307l1.135-2.12 1.208-2.067 1.219-2.068 1.297-2.016 1.297-2.01 1.37-1.958 1.38-1.948c.458-.657.963-1.271 1.443-1.907.984-1.25 1.906-2.547 2.968-3.734 1.042-1.198 2.037-2.432 3.11-3.599l3.244-3.48c1.11-1.124 2.25-2.223 3.375-3.332 1.105-1.13 2.323-2.146 3.495-3.198 1.183-1.052 2.344-2.115 3.589-3.084l3.677-2.963-3.36 3.312c-1.14 1.078-2.203 2.24-3.27 3.386-1.068 1.15-2.167 2.265-3.172 3.468-1.021 1.188-2.063 2.355-3.068 3.553l-2.917 3.671c-.958 1.224-1.843 2.516-2.77 3.766-.933 1.245-1.771 2.563-2.646 3.849-.427.646-.88 1.281-1.287 1.943L130 58l-1.13 2.031-1.125 2.037-1.047 2.073-1.042 2.078-.958 2.109c-.667 1.39-1.255 2.823-1.844 4.245-.619 1.416-1.109 2.88-1.661 4.318a124.887 124.887 0 0 0-1.458 4.38c-.323 1.114-.651 2.229-.954 3.343l1.787-.932c2.271-1.161 4.474-2.443 6.713-3.656 2.25-1.203 4.412-2.542 6.61-3.818 2.208-1.265 4.338-2.646 6.489-4 2.167-1.323 4.245-2.77 6.344-4.182 2.12-1.39 4.141-2.912 6.208-4.365 1.042-.718 2.021-1.51 3.027-2.27l3-2.308 4.359-3.61 1.401-1.25 2.802-2.51 2.693-2.609c.916-.854 1.755-1.77 2.614-2.672.854-.9 1.729-1.797 2.521-2.745.807-.942 1.656-1.854 2.422-2.817l2.318-2.891 2.177-2.974 2.021-3.062c.609-1.053 1.26-2.089 1.843-3.146.547-1.078 1.177-2.125 1.657-3.23l.765-1.63.683-1.661c.234-.552.453-1.104.64-1.667.193-.562.406-1.12.584-1.682a39.888 39.888 0 0 0 1.562-6.823c.146-1.083.224-2.161.25-3.219-.359 0-.714-.005-1.068 0-1.562.016-3.13.068-4.692.146a123.06 123.06 0 0 0-9.381.865c-3.114.4-6.208.948-9.265 1.599a103.491 103.491 0 0 0-9.078 2.338 89.627 89.627 0 0 0-8.766 3.188c-2.854 1.224-5.651 2.562-8.333 4.083-5.375 3.037-10.334 6.755-14.636 11.13a60.077 60.077 0 0 0-5.885 7.057 33.13 33.13 0 0 0-1.302 1.902c-.406.65-.854 1.276-1.229 1.948l-1.177 1.99-1.084 2.04a68.18 68.18 0 0 0-3.64 8.542c-.98 2.953-1.86 5.959-2.48 9.032-.182.765-.312 1.541-.448 2.312-.135.776-.291 1.547-.401 2.323-.197 1.563-.468 3.12-.583 4.698l-.239 2.36-.152 2.37c-.13 1.582-.145 3.171-.192 4.76a43.96 43.96 0 0 0-.021 1.453c.219-.683.453-1.365.661-2.052.329-1.078.766-2.12 1.151-3.177Z"/></g><mask id="c" width="35" height="37" x="79" y="0" maskUnits="userSpaceOnUse" style="mask-type:luminance"><path fill="#fff" d="M79.334.833H114v35.5H79.334V.833Z"/></mask><g mask="url(#c)"><path fill="#CCE310" d="M113.823 18.036c0 9.5-7.687 17.203-17.167 17.203-9.484 0-17.166-7.703-17.166-17.203S87.172.833 96.656.833c9.48 0 17.167 7.703 17.167 17.203Z"/></g></svg>